<svg xmlns="http://www.w3.org/2000/svg" viewBox="0 0 48 48"><path fill="#239fdb" fill-rule="evenodd" d="M48 23.977C48 37.248 37.248 48 23.977 48 10.752 48 0 37.248 0 23.977 0 10.752 10.752 0 23.977 0 37.248 0 48 10.752 48 23.977z" clip-rule="evenodd"/><path fill="#fff" d="M22.038 33.868l-.027-.001a.5.5 0 0 1-.363-.187l-1.578-1.974a.501.501 0 0 1 .019-.647l1.065-1.184a.5.5 0 0 1 .587-.116l2.487 1.184a.5.5 0 0 1 .138.804l-1.975 1.974a.498.498 0 0 1-.353.147zm-.923-2.454l.965 1.205 1.078-1.077-1.511-.72-.532.592z"/><path fill="#fff" d="M25.986 33.868a.505.505 0 0 1-.354-.146l-1.974-1.974a.501.501 0 0 1 .138-.804l2.486-1.184a.5.5 0 0 1 .587.116l1.065 1.184a.502.502 0 0 1 .019.647l-1.578 1.974a.502.502 0 0 1-.363.187h-.026zm-1.119-2.326l1.077 1.077.965-1.205-.532-.591-1.51.719zM24.003 29.632a4.091 4.091 0 0 1-4.087-4.087v-1.993h1v1.993c0 1.702 1.385 3.087 3.087 3.087s3.087-1.385 3.087-3.087v-1.993h1v1.993a4.091 4.091 0 0 1-4.087 4.087z"/><path fill="#fff" d="M21.443 28.6h1v1.622h-1zM25.563 28.6h1v1.622h-1zM27.592 24.52a.502.502 0 0 1-.39-.187l-1.116-1.386a.502.502 0 0 1-.11-.313v-.324h-3.944v.324a.5.5 0 0 1-.11.313l-1.113 1.386a.488.488 0 0 1-.491.176.5.5 0 0 1-.381-.357l-.615-2.246a1.84 1.84 0 0 1 .362-1.564c.251-.31.589-.525.966-.622a2.1 2.1 0 0 1 .706-1.215 2.117 2.117 0 0 1 1.715-.473l3.887.647c.572.096 1.07.409 1.403.883a2.13 2.13 0 0 1 .357 1.62l-.637 2.943a.5.5 0 0 1-.489.395zm-4.871-5.518c-.262 0-.517.093-.72.265a1.111 1.111 0 0 0-.395.851c0 .276-.224.544-.5.544a.831.831 0 0 0-.814 1.008l.35 1.274.39-.485v-.649a.5.5 0 0 1 .5-.5h4.944a.5.5 0 0 1 .5.5v.647l.349.434.412-1.903a1.142 1.142 0 0 0-.194-.851 1.142 1.142 0 0 0-.75-.472l-3.887-.647a1.166 1.166 0 0 0-.185-.016zM16.495 39.999a.5.5 0 0 1-.5-.5v-4.387c0-1.001.533-1.943 1.392-2.46l2.799-1.678a.5.5 0 0 1 .514.858l-2.798 1.678a1.88 1.88 0 0 0-.906 1.603V39.5a.501.501 0 0 1-.501.499zM31.505 39.999a.5.5 0 0 1-.5-.5v-4.387c0-.652-.348-1.267-.907-1.603l-2.797-1.678a.5.5 0 1 1 .514-.858l2.798 1.678a2.887 2.887 0 0 1 1.393 2.46v4.387a.502.502 0 0 1-.501.501z"/><path fill="#fff" d="M19.495 39.999a.5.5 0 0 1-.5-.5v-2.312a1.87 1.87 0 0 0-.489-1.261l-.493-.54a.499.499 0 1 1 .738-.674l.493.54c.484.53.751 1.218.751 1.935v2.312a.5.5 0 0 1-.5.5zM28.505 39.999a.5.5 0 0 1-.5-.5v-2.312c0-.717.267-1.404.751-1.935l.493-.54a.499.499 0 1 1 .738.674l-.493.54a1.87 1.87 0 0 0-.489 1.261v2.312a.5.5 0 0 1-.5.5zM23.995 39.999a.5.5 0 0 1-.5-.5v-8.122a.5.5 0 0 1 1 0v8.122a.5.5 0 0 1-.5.5z"/><path fill="#fff" d="M13.164 32.008a.498.498 0 0 1-.276-.083C9.781 29.867 8 26.979 8 24.001c0-6.065 7.178-11 16-11s16 4.935 16 11c0 2.972-1.774 5.855-4.869 7.911a.499.499 0 1 1-.552-.832C37.388 29.212 39 26.632 39 24.001c0-5.514-6.729-10-15-10s-15 4.486-15 10c0 2.637 1.618 5.221 4.44 7.09a.502.502 0 0 1-.276.917z"/><path fill="#fff" d="M17.501 28.582a.378.378 0 0 1-.067-.005C11.526 27.783 8 26.072 8 24.001s3.526-3.782 9.434-4.576c.267-.05.525.154.562.429a.5.5 0 0 1-.429.562C11.681 21.207 9 22.829 9 24.001s2.681 2.794 8.566 3.586a.5.5 0 0 1-.065.995zM30.499 28.582a.5.5 0 0 1-.065-.996C36.319 26.795 39 25.173 39 24.001s-2.681-2.794-8.566-3.586a.5.5 0 0 1-.429-.562.491.491 0 0 1 .562-.429C36.474 20.219 40 21.93 40 24.001s-3.526 3.782-9.434 4.576a.378.378 0 0 1-.067.005z"/><path fill="#fff" d="M33 32.454a.498.498 0 0 1-.462-.688C33.494 29.412 34 26.727 34 24.001c0-8.271-4.486-15-10-15s-10 6.729-10 15c0 2.726.506 5.411 1.463 7.765a.5.5 0 1 1-.925.377C13.531 29.67 13 26.854 13 24.001c0-8.822 4.935-16 11-16s11 7.178 11 16c0 2.854-.531 5.669-1.537 8.142a.5.5 0 0 1-.463.311z"/><path fill="#fff" d="M28.08 18.001a.5.5 0 0 1-.494-.434c-.792-5.885-2.414-8.566-3.586-8.566s-2.794 2.681-3.586 8.566c-.036.273-.296.478-.562.429a.5.5 0 0 1-.429-.562C20.217 11.527 21.928 8 23.999 8s3.782 3.526 4.576 9.434a.5.5 0 0 1-.495.567z"/><path fill="#fff" d="M33.5 36.73a.5.5 0 0 1-.307-.894C36.884 32.964 39 28.65 39 24.001c0-8.271-6.729-15-15-15s-15 6.729-15 15c0 4.649 2.116 8.963 5.807 11.835a.5.5 0 1 1-.613.789C10.257 33.563 8 28.961 8 24.001c0-8.822 7.178-16 16-16s16 7.178 16 16c0 4.96-2.257 9.562-6.193 12.624a.498.498 0 0 1-.307.105z"/></svg>